<?xml version="1.0" standalone="no"?>
<!DOCTYPE svg PUBLIC "-//W3C//DTD SVG 20010904//EN"
 "http://www.w3.org/TR/2001/REC-SVG-20010904/DTD/svg10.dtd">
<svg version="1.0" xmlns="http://www.w3.org/2000/svg"
 width="478.000000pt" height="604.000000pt" viewBox="0 0 478.000000 604.000000"
 preserveAspectRatio="xMidYMid meet">

<g transform="translate(0.000000,604.000000) scale(0.100000,-0.100000)"
fill="#000000" stroke="none">
<path d="M0 3310 l0 -2730 57 28 c32 16 82 37 110 46 29 10 55 22 59 27 3 5
10 7 15 4 5 -3 18 3 29 13 12 11 40 23 63 27 23 4 36 9 30 12 -27 10 -11 21
22 16 24 -4 35 -2 35 6 0 7 4 10 10 6 5 -3 17 -2 27 3 76 38 131 57 151 54 6
-2 12 2 12 8 0 11 26 14 33 3 2 -5 2 -2 1 4 -2 9 9 13 34 13 21 0 47 7 58 15
10 8 31 15 47 15 20 0 27 5 27 20 0 11 5 20 11 20 5 0 7 -5 4 -10 -3 -6 1 -10
9 -10 8 0 18 5 21 10 4 6 22 9 41 6 19 -3 34 -2 34 3 0 6 20 13 45 17 25 3 45
11 45 16 0 5 4 6 10 3 12 -7 117 23 126 36 3 5 13 0 23 -12 16 -20 16 -27 4
-83 -9 -36 -12 -79 -8 -104 5 -34 3 -48 -11 -63 -17 -19 -17 -20 2 -13 10 4
22 12 26 18 4 6 8 -12 8 -39 0 -50 -1 -51 -42 -69 -24 -10 -67 -20 -98 -22
-30 -2 -59 -4 -65 -4 -5 -1 -1 -5 10 -10 16 -7 11 -9 -22 -9 -23 -1 -48 -4
-57 -7 -9 -3 -16 -1 -16 4 0 6 9 14 21 17 12 4 18 13 15 20 -3 8 2 19 9 25 8
7 12 16 9 21 -2 5 7 11 21 15 14 3 25 11 25 16 0 6 12 7 28 4 17 -4 22 -3 13
2 -9 7 -10 12 -2 16 13 9 15 26 2 26 -5 0 -16 -6 -23 -13 -7 -7 -31 -12 -57
-11 -47 3 -68 -5 -96 -33 -16 -15 -19 -15 -29 -1 -10 13 -26 16 -71 9 -5 -1
-3 -6 5 -11 11 -8 9 -9 -11 -5 -15 4 -48 -2 -80 -14 -39 -15 -48 -16 -34 -5
19 14 17 15 -20 8 -22 -4 -43 -12 -47 -18 -6 -8 -11 -6 -18 4 -5 8 -10 10 -10
4 0 -7 -15 -15 -32 -18 -18 -3 -43 -8 -54 -10 -12 -3 -42 -11 -66 -20 -25 -8
-56 -13 -69 -10 -20 4 -21 3 -5 -4 14 -6 16 -11 7 -16 -6 -4 -18 -2 -26 4 -15
12 -39 4 -30 -10 9 -14 -13 -22 -32 -12 -11 7 -30 5 -56 -4 -48 -17 -50 -17
-41 -2 10 15 -48 -26 -66 -47 -7 -8 -22 -15 -34 -15 -11 0 -31 -3 -44 -6 l-22
-6 0 -239 0 -239 1143 0 1142 1 -25 20 -25 20 27 -12 c16 -7 28 -16 28 -21 0
-4 7 -8 16 -8 14 0 15 2 3 17 -13 17 -13 17 13 0 32 -20 60 -23 33 -3 -18 13
-17 14 12 12 17 -1 35 -5 40 -10 5 -5 0 -6 -12 -2 -11 4 -16 4 -12 -1 5 -4 23
-8 40 -9 29 -2 30 -1 12 12 -25 18 -7 17 25 -1 33 -19 49 -19 24 0 -10 8 -14
15 -8 15 5 0 19 -7 30 -15 10 -8 25 -15 33 -15 11 0 9 4 -4 14 -18 13 -16 14
20 12 22 -1 51 -8 65 -15 23 -11 24 -11 6 3 -26 21 -1 21 34 1 33 -19 49 -19
24 0 -23 18 -2 20 29 3 25 -13 99 -20 92 -8 -3 4 -14 10 -25 13 -11 3 -18 1
-14 -4 8 -14 -20 -11 -42 5 -17 13 -14 14 33 12 29 -2 51 0 48 3 -2 4 18 6 45
6 26 0 46 3 43 8 -2 4 6 7 19 8 13 0 42 2 66 5 27 2 54 -2 72 -11 17 -9 30
-13 30 -11 0 3 -12 11 -26 19 -25 13 -25 14 30 26 31 7 66 10 78 6 18 -5 20
-4 8 4 -12 9 -11 11 8 11 12 0 22 5 22 10 0 6 11 8 26 4 18 -5 25 -3 20 4 -4
6 10 13 34 17 22 4 40 11 40 16 0 5 12 7 28 3 21 -4 24 -3 12 5 -12 9 -11 11
8 11 12 0 22 4 22 10 0 5 16 12 35 16 19 3 35 11 35 16 0 6 9 8 19 5 14 -3 18
-1 14 10 -5 12 -1 14 18 8 18 -5 21 -4 9 4 -13 9 -13 11 3 11 9 0 17 5 17 10
0 6 9 10 21 10 11 0 17 5 14 10 -3 6 1 10 10 10 9 0 13 5 10 10 -3 6 0 10 7
10 8 0 20 9 28 19 7 11 18 17 24 14 6 -3 8 -3 4 2 -4 4 1 15 11 24 10 9 24 27
31 41 9 18 -1 13 -36 -21 -71 -67 -121 -102 -135 -93 -8 4 -9 3 -5 -4 10 -16
-146 -92 -275 -135 -172 -58 -443 -108 -564 -105 -37 0 -23 4 50 12 60 7 92
14 80 18 -11 4 5 5 35 3 42 -3 49 -2 30 5 -19 7 -12 9 30 5 30 -2 44 -1 31 3
-17 6 -1 12 68 26 51 10 90 20 88 23 -3 2 -38 -3 -78 -11 -152 -31 -309 -48
-487 -52 -100 -3 -188 -2 -194 2 -7 4 -35 7 -62 7 -44 -1 -46 0 -16 5 29 6 35
11 35 32 0 24 -4 26 -105 42 l-105 17 100 -6 c98 -5 124 -14 128 -44 3 -20 17
-39 27 -39 5 0 7 7 4 15 -4 10 0 15 12 15 16 0 15 2 -5 13 -50 25 -20 32 171
38 304 10 537 49 753 126 186 66 312 140 403 236 68 73 67 81 -2 12 -132 -132
-361 -234 -666 -295 -153 -31 -397 -54 -515 -48 -65 3 -68 4 -42 16 16 6 25 8
22 2 -4 -6 6 -10 24 -10 32 0 43 21 19 36 -8 5 -9 2 -5 -10 4 -10 3 -15 -3
-11 -13 8 -13 35 -1 35 5 0 16 -6 23 -13 7 -7 25 -18 40 -24 22 -10 26 -10 22
1 -3 8 8 13 38 15 24 1 70 6 103 11 46 6 37 7 -42 3 -80 -4 -108 -2 -125 9
-16 10 -60 15 -148 17 -69 1 -127 4 -129 7 -2 2 45 4 105 4 441 0 873 96 1131
252 82 50 159 123 198 190 34 58 35 60 18 83 -10 14 -21 25 -24 25 -3 0 -15
-17 -27 -38 -33 -58 -132 -174 -145 -169 -7 3 -36 -9 -65 -25 -30 -16 -51 -24
-46 -17 5 9 2 10 -11 5 -15 -5 -16 -4 -5 9 15 17 35 21 24 3 -4 -7 -3 -8 5 -4
6 4 9 11 6 16 -3 5 11 21 31 37 41 30 139 144 167 192 26 44 13 38 -14 -6 -27
-44 -112 -137 -150 -164 -20 -14 -26 -15 -26 -4 0 8 3 13 7 12 17 -5 146 147
194 228 77 130 156 348 156 430 0 11 4 25 10 31 17 17 14 118 -6 239 -4 24 -3
27 6 15 19 -25 2 57 -21 96 -10 19 -19 39 -19 44 0 5 -5 21 -12 37 -6 15 -12
35 -14 43 -1 8 -7 35 -14 60 -10 38 -14 42 -21 25 -6 -16 -8 -11 -8 18 -1 29
-5 37 -17 35 -10 -2 -19 3 -22 11 -2 8 0 11 6 7 20 -12 0 31 -28 63 -16 17
-26 31 -23 31 3 0 -6 9 -20 20 -30 24 -49 26 -41 5 4 -8 2 -15 -4 -15 -15 0
-22 41 -11 62 5 10 6 18 2 18 -14 0 -56 -51 -58 -68 0 -9 -14 -44 -29 -77 -53
-113 -66 -154 -55 -183 16 -45 33 -76 49 -90 13 -10 12 -11 -5 -6 -16 6 -18 4
-8 -6 6 -7 9 -19 6 -26 -3 -8 2 -16 10 -20 9 -3 13 -12 10 -20 -3 -8 0 -21 6
-28 9 -11 9 -15 -1 -19 -9 -3 -6 -10 10 -22 23 -17 29 -49 11 -60 -7 -5 -5
-15 6 -31 8 -13 12 -23 8 -22 -19 7 -14 -18 6 -28 19 -10 20 -12 6 -18 -9 -3
-13 -10 -10 -16 4 -6 -1 -7 -11 -3 -13 5 -15 2 -10 -14 4 -14 2 -23 -8 -26
-18 -7 -83 10 -91 24 -9 14 -85 51 -85 41 0 -5 23 -21 51 -36 55 -31 75 -62
52 -84 -10 -10 -11 -18 -3 -27 6 -7 8 -19 5 -26 -3 -8 6 -21 22 -31 l27 -16
-36 -7 c-20 -4 -50 -4 -67 0 -17 4 -31 3 -31 -2 0 -10 -78 -9 -102 1 -14 6
-18 4 -18 -11 0 -13 13 -23 42 -33 25 -9 42 -22 44 -32 1 -10 -1 -18 -4 -18
-15 0 -128 76 -148 99 -12 14 -26 22 -31 18 -4 -5 0 -13 10 -18 9 -6 17 -15
17 -20 0 -6 -20 6 -45 26 -25 21 -42 41 -39 46 3 5 2 9 -3 9 -4 0 -14 13 -21
30 -14 31 -32 40 -32 16 0 -7 -8 -16 -17 -18 -21 -6 -45 1 -39 10 2 4 -10 8
-27 8 l-32 1 25 -16 c34 -22 108 -92 95 -90 -25 4 -27 -3 -5 -26 37 -39 20
-30 -55 30 -50 40 -75 53 -90 49 -13 -3 -27 1 -34 10 -15 18 -35 11 -24 -7 4
-7 -1 -6 -10 2 -15 12 -17 12 -11 -4 5 -13 4 -16 -4 -11 -8 5 -10 1 -5 -11 6
-16 5 -16 -11 -4 -10 8 -3 -8 15 -37 42 -69 33 -77 -12 -9 -25 39 -41 53 -61
55 -18 2 -28 -1 -28 -10 1 -18 30 -56 30 -39 0 11 3 11 15 1 13 -11 15 -10 9
6 -5 15 -4 16 5 4 7 -11 6 -20 -3 -35 -9 -14 -10 -27 -4 -45 14 -35 37 -131
38 -154 0 -29 -14 -9 -16 22 -5 69 -52 116 -55 55 -2 -25 -2 -25 -6 -5 -4 21
-28 40 -38 30 -3 -2 0 -21 6 -41 9 -33 12 -36 29 -27 17 9 20 6 25 -17 14 -65
14 -63 -6 -50 -16 10 -21 9 -29 -3 -8 -13 -10 -12 -10 3 0 10 -8 17 -20 17
-12 0 -24 9 -29 23 -9 22 -41 30 -57 15 -3 -4 -12 -4 -20 -1 -12 4 -12 0 -4
-21 5 -14 6 -26 2 -26 -11 0 -92 71 -92 81 0 5 9 18 21 30 21 21 21 40 1 47
-8 2 -10 -3 -6 -15 4 -10 -7 3 -24 28 -32 50 -75 86 -80 69 -2 -5 -10 -10 -18
-10 -8 0 -14 -5 -14 -10 0 -6 -12 -3 -27 6 l-28 17 29 -27 c16 -14 27 -28 24
-31 -9 -9 -57 43 -64 69 -8 32 -24 44 -25 19 0 -16 -1 -16 -9 2 -12 27 -12 37
-1 31 5 -3 11 1 14 9 4 9 1 12 -9 8 -7 -3 -14 0 -14 6 0 6 5 11 10 11 6 0 10
9 10 20 0 11 5 20 10 20 6 0 10 -7 10 -15 0 -8 12 -18 28 -22 39 -10 45 -10
60 0 8 7 17 6 24 -1 6 -6 17 -8 24 -5 8 3 14 0 14 -6 0 -6 8 -11 18 -11 10 0
42 -7 72 -15 100 -28 94 -29 64 23 -15 26 -38 67 -51 91 -25 49 -38 66 -27 37
5 -14 4 -17 -4 -12 -7 4 -12 15 -12 25 0 10 -8 25 -17 32 -11 10 -14 10 -9 2
4 -7 3 -13 -1 -13 -5 0 -17 14 -26 30 -11 17 -27 30 -38 30 -11 0 -31 12 -45
28 -21 21 -24 23 -19 7 5 -16 4 -18 -6 -8 -9 9 -10 16 -2 24 8 8 23 5 54 -10
l43 -21 -34 37 c-48 52 -52 54 -80 47 -14 -3 -22 -2 -18 2 4 4 3 13 -3 21 -6
7 -7 13 -2 13 5 0 10 7 10 15 0 8 -6 15 -12 15 -16 0 -35 44 -35 83 -1 30 -1
31 -15 13 -15 -19 -15 -19 -15 1 0 12 3 23 8 26 4 2 2 3 -4 1 -7 -1 -22 9 -35
22 -13 14 -28 23 -35 20 -28 -11 -22 10 8 26 l33 18 -29 -6 c-24 -6 -28 -4
-23 9 4 11 2 14 -8 10 -8 -3 -13 -8 -10 -12 6 -10 -24 -51 -37 -51 -6 0 -3 9
7 20 18 20 18 21 -1 13 -24 -9 -49 -33 -35 -33 6 0 10 -3 9 -7 -3 -18 22 -61
60 -101 23 -24 44 -52 47 -63 4 -10 10 -19 15 -19 4 0 10 -11 12 -25 4 -17 -2
-31 -20 -47 -24 -23 -25 -23 -13 -1 16 31 14 34 -13 29 -14 -2 -27 1 -29 7 -3
9 -15 7 -43 -7 -38 -18 -39 -18 -22 1 17 18 16 19 -20 15 l-37 -3 29 20 c17
11 33 18 37 15 4 -2 11 1 15 7 5 9 -2 10 -27 5 -19 -3 -35 -11 -37 -16 -2 -6
-11 -10 -20 -10 -9 0 -37 -7 -60 -15 -26 -9 -57 -13 -77 -9 -24 4 -34 2 -38
-11 -7 -17 -3 -16 98 2 24 4 28 3 18 -8 -11 -11 -232 -34 -241 -25 -1 2 17 13
40 24 49 24 34 27 -53 13 -105 -18 -139 -21 -139 -13 0 9 255 46 268 39 4 -3
16 -1 27 4 12 4 -49 9 -145 10 -129 3 -142 4 -60 6 118 4 143 9 120 23 -12 8
-10 10 9 10 16 0 21 4 17 15 -4 11 2 15 24 15 16 0 32 5 36 11 5 9 -1 10 -20
5 -18 -4 -25 -3 -21 4 3 5 0 10 -7 10 -20 0 -159 52 -154 58 3 2 23 -3 46 -12
56 -22 129 -38 142 -30 6 4 -6 17 -28 31 -22 14 -30 22 -19 17 32 -12 85 -13
92 -2 4 7 -3 9 -20 4 -21 -5 -25 -3 -21 8 4 9 -3 16 -18 19 -15 3 -10 5 15 6
28 1 37 5 37 19 0 9 -3 13 -8 7 -4 -6 -24 -7 -47 -4 l-40 6 35 2 35 2 -32 16
c-18 9 -33 20 -33 25 0 4 -8 8 -17 8 -21 0 -88 39 -80 46 3 3 -2 14 -11 24
-32 35 -38 45 -39 67 -1 14 4 23 13 23 8 0 14 4 14 8 0 5 16 16 36 26 l36 17
-5 -23 c-8 -33 32 -109 72 -135 28 -19 48 -23 109 -23 64 0 73 2 68 16 -5 12
-2 15 11 9 19 -7 41 -13 57 -14 6 -1 5 -6 -2 -13 -15 -15 -16 -38 -1 -38 5 0
8 4 5 8 -3 5 12 22 34 38 21 16 47 46 56 67 17 37 45 61 73 62 18 0 44 105 30
120 -5 5 -9 19 -9 31 0 15 -8 24 -25 28 -14 4 -26 5 -28 4 -2 -2 -14 4 -28 13
-34 23 -80 22 -86 -2 -3 -10 -10 -16 -15 -13 -5 3 -7 12 -4 20 3 8 0 11 -9 7
-8 -3 -12 -10 -8 -17 4 -6 -1 -5 -10 2 -9 8 -49 16 -89 19 -88 6 -116 18 -70
28 18 3 30 11 26 16 -3 5 9 9 26 9 24 0 31 4 27 14 -4 9 3 16 16 20 17 4 19 8
9 18 -14 14 -16 32 -2 23 13 -8 13 1 -1 26 -10 20 -9 20 20 5 40 -21 45 -20
27 6 -23 32 -20 45 4 17 10 -13 19 -20 20 -16 0 4 10 3 22 -4 18 -10 20 -9 15
5 -5 12 -2 17 11 15 9 -1 30 -1 46 0 22 1 27 5 22 18 -6 15 -4 15 14 -2 14
-13 20 -14 20 -5 0 11 3 11 12 2 18 -18 45 -14 61 8 19 27 75 38 83 16 3 -9
15 -16 25 -16 11 0 22 -7 25 -15 9 -22 48 -18 106 12 85 43 88 44 88 32 0 -6
6 -9 12 -7 7 3 21 -4 32 -13 10 -10 23 -16 27 -13 14 8 47 -19 42 -34 -5 -11
1 -11 27 3 18 9 29 12 26 6 -12 -19 10 -12 30 10 l19 21 5 -22 5 -21 23 21
c21 20 23 20 20 4 -2 -12 2 -18 10 -16 8 1 16 -6 19 -17 5 -19 7 -19 29 -4 22
14 24 14 24 -1 0 -8 11 -18 24 -22 17 -4 23 -11 19 -22 -4 -8 -2 -13 3 -10 15
9 54 -10 54 -27 0 -8 6 -15 14 -15 10 0 13 -12 12 -45 -2 -24 1 -42 6 -39 4 3
8 12 8 20 0 8 4 14 10 14 5 0 6 -8 3 -17 -6 -15 -4 -16 9 -6 8 7 18 10 21 6 4
-3 7 -2 7 4 0 6 11 10 24 9 20 -1 22 -4 15 -24 -11 -30 -11 -35 1 -27 6 3 10
2 10 -4 0 -5 -5 -13 -10 -16 -6 -3 -10 -1 -10 5 0 6 -5 8 -10 5 -14 -9 -13 8
2 23 6 6 9 15 5 18 -3 4 -12 -5 -18 -20 -7 -14 -10 -29 -7 -32 10 -10 88 -3
88 8 0 4 6 5 14 2 8 -3 17 -1 21 5 3 6 -1 11 -11 11 -27 0 -4 17 38 28 29 8
40 7 49 -4 7 -8 18 -13 26 -10 11 5 18 -12 14 -36 0 -5 4 -8 9 -8 6 0 10 -7
10 -16 0 -8 5 -12 10 -9 6 3 10 -3 10 -15 0 -11 7 -23 15 -26 8 -4 12 -11 8
-17 -4 -6 -1 -7 7 -2 10 6 12 3 8 -12 -3 -12 -1 -27 4 -34 7 -11 8 -9 4 5 -5
13 -2 17 9 12 9 -3 15 0 15 9 0 8 5 15 12 15 9 0 9 3 0 12 -19 19 -14 30 10
17 18 -10 24 -8 35 7 10 13 13 14 13 3 1 -8 7 1 15 19 17 38 40 44 31 7 -4
-17 -2 -25 7 -25 34 0 50 53 22 74 -9 6 -17 24 -19 39 -3 30 -22 57 -92 129
-53 54 -177 158 -190 158 -15 1 -74 59 -74 72 0 8 3 9 8 3 10 -14 62 -37 62
-27 0 9 -71 48 -82 45 -4 -2 -8 1 -8 6 0 17 -149 80 -285 119 -200 59 -299 73
-533 78 -173 4 -203 3 -208 -10 -3 -8 -12 -12 -20 -9 -7 3 -27 0 -44 -5 -18
-7 -32 -7 -35 -1 -4 5 -14 5 -26 -1 -10 -6 -25 -10 -32 -8 -6 1 -22 -3 -33
-10 -12 -6 -48 -15 -80 -18 -33 -4 -63 -10 -69 -14 -5 -4 -37 -15 -70 -25 -33
-9 -89 -31 -125 -48 -36 -17 -72 -32 -80 -33 -34 -3 -93 -39 -168 -104 -134
-116 -192 -218 -197 -345 -1 -38 -3 -77 -4 -85 0 -8 -12 -28 -25 -43 -14 -16
-28 -42 -31 -58 -4 -16 -10 -29 -14 -29 -12 0 -31 -48 -31 -75 0 -14 -6 -25
-13 -25 -14 0 -31 -89 -44 -217 -3 -32 -10 -64 -15 -70 -6 -7 -8 -30 -6 -50 3
-21 0 -46 -6 -56 -8 -13 -8 -20 2 -26 11 -6 10 -10 -4 -15 -16 -6 -17 5 -11
161 6 160 18 253 53 386 8 32 13 61 11 63 -7 7 -64 -20 -67 -31 -1 -5 -6 -9
-10 -8 -14 4 -21 -32 -12 -58 24 -65 -37 -132 -100 -110 -17 6 -39 21 -49 32
-23 27 -25 91 -4 113 19 19 19 18 -11 51 -17 19 -29 24 -36 17 -12 -12 -62 0
-84 22 -8 9 -21 17 -27 17 -7 1 -16 2 -22 4 -5 1 -15 3 -21 3 -7 1 -14 9 -18
17 -7 19 -1 19 17 1 13 -13 15 -12 15 9 0 17 -5 22 -17 19 -9 -2 0 3 19 12 19
9 37 20 40 25 9 14 77 39 106 39 15 0 35 7 44 15 37 33 193 26 207 -11 3 -7
11 -14 19 -14 8 0 14 -8 15 -17 0 -11 3 -13 6 -5 8 20 23 3 23 -26 0 -20 12
-4 45 62 59 115 129 209 218 292 127 118 232 178 408 237 502 169 1156 91
1568 -185 68 -46 72 -47 52 -19 -57 80 -226 173 -445 247 -171 57 -329 84
-536 91 -331 11 -570 -36 -827 -163 -62 -30 -116 -55 -120 -55 -4 0 -23 -14
-40 -31 -34 -33 -47 -31 -15 1 35 38 232 138 361 185 117 42 218 66 351 81
383 45 756 -16 1088 -180 89 -44 127 -58 139 -52 10 6 14 6 9 -1 -3 -5 4 -12
17 -16 12 -3 36 -18 53 -33 16 -15 22 -22 12 -14 -24 19 -23 -1 1 -23 13 -12
21 -14 26 -6 7 11 126 -90 213 -180 47 -49 90 -116 97 -149 5 -25 57 -143 61
-138 5 5 -22 110 -39 148 -59 134 -340 395 -526 488 -183 92 -438 167 -671
196 -253 33 -565 8 -805 -64 -55 -16 -101 -28 -103 -26 -7 7 192 65 288 85
112 22 260 39 362 42 68 1 70 1 28 9 -82 13 212 -2 315 -17 207 -30 420 -95
595 -183 45 -22 87 -38 93 -34 5 3 7 1 4 -4 -4 -6 4 -18 18 -27 35 -23 45 -19
15 5 l-25 20 31 -15 c34 -17 236 -218 329 -329 32 -37 60 -67 63 -67 3 0 -3
10 -14 23 -11 12 -51 58 -89 102 -37 44 -114 125 -169 181 l-101 101 -215 105
c-118 58 -237 113 -265 121 -230 73 -765 88 -1077 31 -93 -17 -265 -94 -450
-202 l-88 -51 0 50 c0 38 4 51 18 55 38 12 417 198 430 210 7 8 16 14 19 14 2
0 61 7 129 15 146 18 179 21 379 30 132 6 272 0 485 -20 40 -4 48 -3 28 4
-125 42 -693 40 -932 -3 -77 -14 -141 -24 -142 -23 -2 1 20 14 47 28 27 15 46
22 42 15 -3 -6 0 -6 8 2 16 15 33 16 23 1 -5 -8 -1 -8 14 0 23 12 38 31 25 31
-5 0 -14 -5 -21 -12 -7 -7 -12 -8 -12 -2 0 14 56 54 75 54 23 0 55 19 55 32 0
7 -5 6 -15 -2 -10 -8 -15 -9 -15 -1 0 13 22 18 115 29 80 9 116 5 94 -9 -11
-7 -11 -9 3 -9 9 0 18 5 20 12 3 7 7 6 11 -5 5 -14 0 -17 -24 -17 -17 0 -28
-4 -25 -8 7 -11 75 -2 83 11 4 6 1 7 -8 2 -12 -7 -12 -5 -1 6 9 10 46 15 127
18 77 2 113 7 108 14 -3 6 -1 7 5 3 6 -4 9 -13 6 -20 -5 -12 6 -11 56 2 55 15
63 15 73 2 15 -19 37 -24 37 -7 0 8 4 7 10 -3 7 -11 10 -12 10 -2 0 9 7 11 23
7 12 -4 30 -9 41 -12 13 -3 16 -1 11 7 -5 9 -2 10 11 3 28 -14 94 -16 94 -4 0
6 14 11 31 11 20 0 28 -4 23 -12 -4 -7 -3 -8 5 -4 7 5 20 -1 30 -13 21 -24 33
-27 25 -7 -10 27 17 27 53 0 20 -15 33 -22 28 -14 -6 9 0 9 21 -3 16 -8 87
-43 159 -77 71 -34 141 -72 155 -85 37 -34 148 -133 217 -192 54 -47 126 -139
145 -186 4 -10 12 -16 18 -12 5 3 8 0 5 -7 -3 -7 23 -51 56 -98 34 -47 70
-102 81 -123 21 -41 17 -63 -6 -32 -12 17 -14 16 -26 -21 -7 -21 -26 -56 -42
-77 -31 -39 -32 -61 -2 -36 9 7 26 18 38 24 11 6 21 15 22 20 2 21 17 45 28
45 7 0 18 11 24 25 10 22 15 24 33 15 26 -15 34 -7 20 18 -14 26 -14 35 0 27
5 -4 3 10 -6 32 -9 21 -11 33 -6 28 20 -20 128 -222 152 -282 19 -50 29 -63
56 -74 18 -7 33 -19 33 -26 0 -8 5 -11 11 -8 11 8 38 -22 39 -43 0 -18 -36
-63 -44 -55 -3 3 -6 1 -6 -6 0 -7 -4 -9 -10 -6 -5 3 -10 -2 -10 -12 0 -20 17
-134 25 -171 3 -12 2 -22 -3 -22 -4 0 -8 9 -9 20 -3 39 -45 195 -55 205 -7 7
-9 2 -4 -15 4 -14 14 -51 22 -83 9 -32 15 -73 14 -90 0 -18 -2 -53 -3 -79 l-2
-47 -65 -6 c-36 -3 -74 -7 -84 -8 -13 -1 -22 7 -29 28 -6 16 -16 35 -22 42 -7
6 -21 42 -31 80 -15 56 -19 63 -25 43 -4 -14 -4 -43 -1 -65 7 -60 -3 -40 -28
53 -12 46 -24 81 -27 79 -2 -3 3 -32 11 -64 53 -204 62 -390 25 -528 -11 -44
-25 -96 -29 -115 -5 -19 -18 -70 -30 -113 -11 -43 -18 -82 -15 -87 11 -18 44
-10 56 12 11 21 13 21 19 4 6 -19 -4 -124 -14 -133 -3 -3 -11 -1 -18 5 -7 5
-24 12 -38 14 -16 2 -24 9 -22 18 8 35 -19 -10 -52 -88 -20 -46 -36 -84 -36
-85 0 -1 21 -3 46 -5 l47 -3 -5 46 c-4 33 -2 45 8 45 7 0 16 -5 19 -10 3 -6 2
-10 -4 -10 -5 0 -8 -8 -6 -18 2 -9 4 -22 4 -27 1 -12 139 -40 148 -31 4 3 11
2 17 -3 6 -4 36 -16 66 -25 30 -10 62 -20 70 -24 17 -7 36 -11 68 -15 13 -2
27 -8 30 -13 9 -12 104 -44 131 -44 12 0 24 -7 27 -15 4 -8 12 -15 19 -15 12
0 104 -37 202 -81 23 -10 46 -19 50 -19 4 -1 26 -9 48 -20 22 -11 46 -19 53
-20 9 0 12 308 12 1510 0 1019 -3 1510 -10 1510 -6 0 -8 10 -4 24 3 14 -1 49
-10 79 -18 63 -19 67 -8 67 5 0 13 -12 19 -27 8 -21 11 285 12 1130 l1 1157
-1384 0 c-1098 0 -1386 -3 -1390 -12 -5 -10 -7 -10 -12 0 -4 9 -214 12 -1000
12 l-994 0 0 -2730z m3480 2699 c0 -5 -4 -9 -10 -9 -5 0 -10 7 -10 16 0 8 5
12 10 9 6 -3 10 -10 10 -16z m615 -19 c3 -5 1 -10 -4 -10 -6 0 -11 5 -11 10 0
6 2 10 4 10 3 0 8 -4 11 -10z m-1085 -60 c0 -5 -4 -10 -10 -10 -5 0 -10 5 -10
10 0 6 5 10 10 10 6 0 10 -4 10 -10z m-240 -70 c0 -5 -4 -10 -10 -10 -5 0 -10
5 -10 10 0 6 5 10 10 10 6 0 10 -4 10 -10z m-1606 -701 c-3 -5 -10 -7 -15 -3
-5 3 -7 10 -3 15 3 5 10 7 15 3 5 -3 7 -10 3 -15z m2891 -39 c3 -5 1 -10 -4
-10 -6 0 -11 5 -11 10 0 6 2 10 4 10 3 0 8 -4 11 -10z m-10 -30 c3 -5 1 -10
-4 -10 -6 0 -11 5 -11 10 0 6 2 10 4 10 3 0 8 -4 11 -10z m-3020 -120 c3 -5 1
-10 -4 -10 -6 0 -11 5 -11 10 0 6 2 10 4 10 3 0 8 -4 11 -10z m3235 -27 c0
-22 -2 -25 -10 -13 -13 20 -13 40 0 40 6 0 10 -12 10 -27z m-55 -23 c3 -5 1
-10 -4 -10 -6 0 -11 5 -11 10 0 6 2 10 4 10 3 0 8 -4 11 -10z m385 -370 c0 -5
-2 -10 -4 -10 -3 0 -8 5 -11 10 -3 6 -1 10 4 10 6 0 11 -4 11 -10z m70 -105
c0 -5 -5 -3 -10 5 -5 8 -10 20 -10 25 0 6 5 3 10 -5 5 -8 10 -19 10 -25z
m-3895 -15 c3 -5 -1 -10 -10 -10 -9 0 -13 5 -10 10 3 6 8 10 10 10 2 0 7 -4
10 -10z m3775 -40 c0 -5 -7 -10 -16 -10 -8 0 -12 5 -9 10 3 6 10 10 16 10 5 0
9 -4 9 -10z m140 -130 c0 -5 -4 -10 -9 -10 -6 0 -13 5 -16 10 -3 6 1 10 9 10
9 0 16 -4 16 -10z m-1460 -10 c0 -5 -4 -10 -10 -10 -5 0 -10 5 -10 10 0 6 5
10 10 10 6 0 10 -4 10 -10z m540 -10 c0 -5 -2 -10 -4 -10 -3 0 -8 5 -11 10 -3
6 -1 10 4 10 6 0 11 -4 11 -10z m-190 -250 c0 -5 -5 -12 -11 -16 -14 -8 -33
11 -25 25 7 11 36 4 36 -9z m1033 -19 c-4 -17 -8 -18 -24 -8 -18 11 -18 12 -1
19 27 11 30 9 25 -11z m-1731 -146 c0 -5 -5 -11 -11 -13 -6 -2 -11 4 -11 13 0
9 5 15 11 13 6 -2 11 -8 11 -13z m-2812 -155 c0 -5 -2 -10 -4 -10 -3 0 -8 5
-11 10 -3 6 -1 10 4 10 6 0 11 -4 11 -10z m3690 -100 c0 -5 -5 -10 -11 -10 -5
0 -7 5 -4 10 3 6 8 10 11 10 2 0 4 -4 4 -10z m-2700 -24 c0 -3 -4 -8 -10 -11
-5 -3 -10 -1 -10 4 0 6 5 11 10 11 6 0 10 -2 10 -4z m485 -76 c-5 -8 -11 -8
-17 -2 -6 6 -7 16 -3 22 5 8 11 8 17 2 6 -6 7 -16 3 -22z m2922 -136 c-9 -9
-28 6 -21 18 4 6 10 6 17 -1 6 -6 8 -13 4 -17z m-2497 -4 c0 -5 -5 -10 -11
-10 -5 0 -7 5 -4 10 3 6 8 10 11 10 2 0 4 -4 4 -10z m1088 -307 c45 -20 81
-37 79 -39 -6 -7 -165 54 -190 71 l-22 17 25 -7 c14 -4 62 -23 108 -42z m1142
37 c0 -5 -4 -10 -10 -10 -5 0 -10 5 -10 10 0 6 5 10 10 10 6 0 10 -4 10 -10z
m-2530 -110 c-8 -5 -19 -10 -25 -10 -5 0 -3 5 5 10 8 5 20 10 25 10 6 0 3 -5
-5 -10z m-730 -20 c0 -5 -4 -10 -10 -10 -5 0 -10 5 -10 10 0 6 5 10 10 10 6 0
10 -4 10 -10z m1100 -84 c0 -3 -4 -8 -10 -11 -5 -3 -10 -1 -10 4 0 6 5 11 10
11 6 0 10 -2 10 -4z m1059 -80 c14 -8 31 -12 38 -9 7 3 13 1 13 -4 0 -16 -33
-11 -65 9 -34 21 -22 24 14 4z m-1739 -86 c0 -5 -4 -10 -10 -10 -5 0 -10 5
-10 10 0 6 5 10 10 10 6 0 10 -4 10 -10z m237 -117 c-9 -9 -19 -14 -22 -11 -3
3 2 13 11 22 9 9 19 14 22 11 3 -3 -2 -13 -11 -22z m-547 -59 c0 -21 -4 -33
-10 -29 -5 3 -10 22 -10 41 0 21 4 33 10 29 6 -3 10 -22 10 -41z m3500 -14 c0
-5 -4 -10 -10 -10 -5 0 -10 5 -10 10 0 6 5 10 10 10 6 0 10 -4 10 -10z m-3529
-58 c26 -11 50 -25 53 -31 10 -15 6 -14 -44 10 -24 12 -78 28 -120 35 l-75 14
70 -4 c39 -3 91 -13 116 -24z m2049 -52 c0 -5 -4 -10 -10 -10 -5 0 -10 5 -10
10 0 6 5 10 10 10 6 0 10 -4 10 -10z m505 -18 c-3 -3 -11 0 -18 7 -9 10 -8 11
6 5 10 -3 15 -9 12 -12z m-381 -17 c-7 -16 -24 -21 -24 -6 0 8 7 13 27 20 1 1
0 -6 -3 -14z m-1224 -115 c11 -7 3 -10 -30 -9 -34 0 -40 2 -25 9 27 12 37 12
55 0z m1480 -19 c7 -14 7 -22 -2 -27 -6 -4 -8 -3 -5 3 4 6 0 13 -8 17 -8 3
-15 10 -15 16 0 17 19 11 30 -9z m870 -51 c0 -5 -4 -10 -10 -10 -5 0 -10 5
-10 10 0 6 5 10 10 10 6 0 10 -4 10 -10z m-2290 -30 c0 -11 -4 -20 -10 -20 -5
0 -10 9 -10 20 0 11 5 20 10 20 6 0 10 -9 10 -20z m2630 -110 c0 -5 -4 -10
-10 -10 -5 0 -10 5 -10 10 0 6 5 10 10 10 6 0 10 -4 10 -10z m-701 -95 c0 -5
-4 -3 -9 5 -5 8 -9 22 -9 30 0 16 17 -16 18 -35z m-2219 -45 c8 -5 11 -10 5
-10 -5 0 -17 5 -25 10 -8 5 -10 10 -5 10 6 0 17 -5 25 -10z m2497 -12 c-3 -8
-6 -5 -6 6 -1 11 2 17 5 13 3 -3 4 -12 1 -19z m-2632 2 c13 -5 14 -9 5 -9 -8
0 -24 4 -35 9 -13 5 -14 9 -5 9 8 0 24 -4 35 -9z m2385 -31 c0 -6 -4 -7 -10
-4 -5 3 -10 11 -10 16 0 6 5 7 10 4 6 -3 10 -11 10 -16z m-5 -108 c3 -5 1 -12
-5 -16 -5 -3 -10 1 -10 9 0 18 6 21 15 7z m-158 -33 c-3 -8 -6 -5 -6 6 -1 11
2 17 5 13 3 -3 4 -12 1 -19z m-1491 -65 c-7 -7 -26 7 -26 19 0 6 6 6 15 -2 9
-7 13 -15 11 -17z m-261 -3 c-10 -11 -13 -20 -8 -20 6 0 15 6 21 13 6 7 23 13
39 14 l28 2 -23 -16 c-13 -9 -40 -18 -60 -20 l-36 -4 24 25 c28 30 42 35 15 6z
m-85 5 c0 -2 -10 -9 -22 -15 -22 -11 -22 -10 -4 4 21 17 26 19 26 11z m-603
-11 c-3 -3 -12 -4 -19 -1 -8 3 -5 6 6 6 11 1 17 -2 13 -5z m-44 -11 c-7 -2
-19 -2 -25 0 -7 3 -2 5 12 5 14 0 19 -2 13 -5z m651 -5 c-5 -8 -2 -9 9 -5 25
9 21 2 -9 -18 -15 -9 -23 -12 -20 -6 4 6 0 11 -11 11 -14 1 -13 4 7 15 31 18
33 18 24 3z m-737 -4 c-3 -3 -12 -4 -19 -1 -8 3 -5 6 6 6 11 1 17 -2 13 -5z
m494 -54 c-58 -28 -121 -60 -140 -72 -22 -13 -30 -15 -21 -5 19 19 230 127
250 127 8 0 -32 -23 -89 -50z m149 -33 c0 -1 -37 -38 -82 -82 -45 -44 -65 -60
-44 -35 44 52 126 128 126 117z m2045 -58 c-21 -39 -26 -37 -13 6 6 19 15 32
20 29 4 -3 1 -18 -7 -35z m-2220 -81 c-60 -62 -122 -126 -139 -143 l-30 -30
24 30 c30 36 243 255 249 255 2 0 -45 -51 -104 -112z m2228 -15 c-9 -59 -20
-75 -43 -63 -23 12 -18 33 18 73 14 15 27 27 28 27 2 0 0 -17 -3 -37z m-913
-58 c19 -19 30 -35 24 -35 -5 0 -22 16 -37 35 -36 45 -30 45 13 0z m-209 -27
c13 -18 16 -27 8 -21 -9 7 -18 11 -21 8 -3 -3 -11 2 -19 12 -12 14 -12 16 0 8
11 -6 13 -4 8 8 -10 26 -1 20 24 -15z m619 -38 c0 -5 -2 -10 -4 -10 -3 0 -8 5
-11 10 -3 6 -1 10 4 10 6 0 11 -4 11 -10z m-379 -47 c13 -16 12 -17 -3 -4 -17
13 -22 21 -14 21 2 0 10 -8 17 -17z m-221 -50 c0 -22 -8 -14 -19 20 -10 29 -9
30 4 13 8 -11 15 -26 15 -33z m-400 -74 c0 -5 -7 -9 -15 -9 -8 0 -15 7 -15 15
0 9 6 12 15 9 8 -4 15 -10 15 -15z m1490 -99 c0 -5 -4 -10 -10 -10 -5 0 -10 5
-10 10 0 6 5 10 10 10 6 0 10 -4 10 -10z m-231 -202 c-62 -119 -232 -231 -470
-309 -113 -37 -297 -80 -336 -78 -10 0 30 11 88 24 194 42 399 116 523 189 61
36 158 126 181 170 11 19 21 34 23 31 2 -2 -2 -14 -9 -27z m-3514 -48 c3 -5 1
-10 -4 -10 -6 0 -11 5 -11 10 0 6 2 10 4 10 3 0 8 -4 11 -10z m3210 -50 c-3
-5 -12 -10 -18 -10 -7 0 -6 4 3 10 19 12 23 12 15 0z m1275 -14 c0 -11 -19
-15 -25 -6 -3 5 1 10 9 10 9 0 16 -2 16 -4z m-4034 -23 c-1 -18 -24 -39 -32
-30 -6 6 18 47 27 47 4 0 6 -8 5 -17z m-158 -19 c-14 -14 -123 -81 -127 -78
-7 6 43 45 84 64 42 20 52 24 43 14z m1800 -1 c-16 -2 -40 -2 -55 0 -16 2 -3
4 27 4 30 0 43 -2 28 -4z m205 -14 c-7 -7 -24 -8 -54 -1 l-44 10 55 1 c39 1
51 -2 43 -10z m-1713 -9 c0 -5 -4 -10 -10 -10 -5 0 -10 5 -10 10 0 6 5 10 10
10 6 0 10 -4 10 -10z m-565 -60 c-27 -12 -43 -12 -25 0 8 5 22 9 30 9 10 0 8
-3 -5 -9z m-59 -15 c-11 -8 -25 -15 -30 -15 -6 0 -2 7 8 15 11 8 25 15 30 15
6 0 2 -7 -8 -15z m304 -45 c-8 -5 -19 -10 -25 -10 -5 0 -3 5 5 10 8 5 20 10
25 10 6 0 3 -5 -5 -10z m2398 -97 c-10 -2 -26 -2 -35 0 -10 3 -2 5 17 5 19 0
27 -2 18 -5z m-75 -10 c-7 -2 -19 -2 -25 0 -7 3 -2 5 12 5 14 0 19 -2 13 -5z
m-320 -98 c-3 -9 -8 -14 -10 -11 -3 3 -2 9 2 15 9 16 15 13 8 -4z m-36 -41
c-3 -3 -12 -4 -19 -1 -8 3 -5 6 6 6 11 1 17 -2 13 -5z m-127 -94 c0 -5 -4 -10
-10 -10 -5 0 -10 5 -10 10 0 6 5 10 10 10 6 0 10 -4 10 -10z m273 -77 c-29 -2
-78 -2 -110 0 -32 2 -8 3 52 3 61 0 87 -1 58 -3z m-422 -20 c13 -16 12 -17 -3
-4 -10 7 -18 15 -18 17 0 8 8 3 21 -13z m91 -12 c11 -11 10 -12 -7 -4 -11 6
-25 8 -32 6 -6 -2 -14 0 -16 4 -9 15 41 9 55 -6z"/>
<path d="M2031 3325 c-91 -23 -86 -35 15 -34 63 1 78 4 49 8 -36 6 -38 7 -15
14 14 3 35 7 48 7 12 0 22 5 22 10 0 13 -52 11 -119 -5z"/>
<path d="M2305 3310 c-126 -5 -118 -6 80 -7 213 -1 260 3 125 9 -36 2 -128 1
-205 -2z"/>
<path d="M2980 3316 c0 -3 9 -10 20 -16 11 -6 20 -8 20 -6 0 3 -9 10 -20 16
-11 6 -20 8 -20 6z"/>
<path d="M2778 3293 c6 -2 18 -2 25 0 6 3 1 5 -13 5 -14 0 -19 -2 -12 -5z"/>
<path d="M3052 3274 c9 -9 21 -15 27 -13 6 2 -2 10 -17 17 -25 11 -25 11 -10
-4z"/>
<path d="M3070 3236 c0 -2 7 -7 16 -10 8 -3 12 -2 9 4 -6 10 -25 14 -25 6z"/>
<path d="M3070 3146 c0 -2 35 -19 78 -36 99 -42 184 -81 275 -126 46 -24 66
-30 57 -19 -17 20 -230 123 -331 160 -73 26 -79 28 -79 21z"/>
<path d="M3572 2872 c40 -46 72 -88 70 -93 -1 -6 2 -8 7 -5 5 3 42 -29 82 -71
40 -43 59 -60 42 -38 -17 22 -86 96 -153 165 -83 85 -98 99 -48 42z"/>
<path d="M3420 2794 c0 -6 35 -41 79 -77 43 -37 118 -109 167 -159 49 -51 77
-77 64 -58 -46 65 -310 316 -310 294z"/>
<path d="M3330 2626 c0 -2 7 -7 16 -10 8 -3 12 -2 9 4 -6 10 -25 14 -25 6z"/>
<path d="M3516 2527 c56 -54 123 -128 150 -167 26 -38 49 -68 52 -66 13 14
-139 202 -216 266 -95 80 -89 65 14 -33z"/>
<path d="M3385 2590 c10 -11 20 -20 23 -20 3 0 -3 9 -13 20 -10 11 -20 20 -23
20 -3 0 3 -9 13 -20z"/>
<path d="M3630 2465 c13 -14 26 -25 28 -25 3 0 -5 11 -18 25 -13 14 -26 25
-28 25 -3 0 5 -11 18 -25z"/>
<path d="M3675 2410 c10 -11 20 -20 23 -20 3 0 -3 9 -13 20 -10 11 -20 20 -23
20 -3 0 3 -9 13 -20z"/>
<path d="M3711 2363 c7 -12 15 -20 18 -17 3 2 -3 12 -13 22 -17 16 -18 16 -5
-5z"/>
<path d="M3945 2347 c-88 -19 -100 -25 -103 -44 -2 -12 2 -30 8 -40 9 -15 10
-12 8 17 l-3 35 95 19 c94 19 96 19 119 0 13 -10 30 -32 38 -49 l14 -30 -6 30
c-11 50 -29 80 -50 82 -11 1 -65 -8 -120 -20z"/>
<path d="M3210 2280 c-8 -5 -10 -10 -5 -10 6 0 17 5 25 10 8 5 11 10 5 10 -5
0 -17 -5 -25 -10z"/>
<path d="M3218 2263 c-25 -4 -28 -9 -28 -41 0 -28 3 -33 10 -22 8 13 14 8 12
-11 -1 -6 23 -4 71 7 17 4 27 2 27 -5 0 -6 -9 -11 -20 -11 -11 0 -20 -5 -20
-10 0 -7 -6 -7 -19 -1 -18 10 -31 6 -31 -11 0 -4 6 -7 13 -5 6 1 11 -3 10 -10
-3 -13 55 -7 74 9 8 6 19 6 32 -1 11 -6 27 -11 35 -11 13 0 13 4 0 38 -20 46
-95 113 -78 68 3 -9 -7 -18 -28 -27 -18 -7 -37 -15 -43 -17 -5 -3 3 8 18 23
21 21 24 30 15 37 -7 4 -15 7 -18 6 -3 0 -17 -3 -32 -5z m156 -105 c-7 -11 -7
-11 -24 22 -13 25 -13 25 8 6 12 -10 19 -23 16 -28z"/>
<path d="M2689 2227 c-40 -25 -83 -61 -117 -99 -22 -25 -58 -120 -44 -116 4 1
26 -8 49 -20 54 -28 59 -28 39 3 -9 13 -16 42 -16 64 0 32 7 47 36 77 26 28
37 35 43 25 7 -10 13 -10 29 -2 37 20 85 12 139 -21 54 -35 67 -54 64 -103 -2
-34 -29 -67 -75 -89 l-31 -16 35 0 c81 0 129 71 105 157 -7 23 -10 53 -8 67 3
16 1 26 -6 26 -7 0 -9 5 -5 11 4 7 1 10 -7 7 -8 -3 -19 0 -25 6 -43 41 -56 46
-112 46 -41 -1 -67 -7 -93 -23z"/>
<path d="M3190 2159 c0 -5 5 -7 10 -4 6 3 10 8 10 11 0 2 -4 4 -10 4 -5 0 -10
-5 -10 -11z"/>
<path d="M2664 2107 c-1 -26 4 -46 13 -52 13 -10 13 -13 -1 -24 -18 -15 -22
-36 -5 -25 8 4 9 -1 4 -16 -5 -16 -4 -21 6 -18 8 3 13 13 12 23 -1 14 6 10 24
-13 31 -40 51 -40 88 -2 22 23 29 41 33 83 4 48 2 56 -19 71 -24 16 -80 22
-93 9 -10 -10 -50 -12 -56 -2 -3 4 -6 -11 -6 -34z m33 -7 c-11 -29 -27 -41
-27 -19 0 16 20 49 29 49 5 0 4 -13 -2 -30z"/>
<path d="M3448 2102 c-42 -43 -81 -109 -69 -116 14 -9 51 24 51 45 0 11 14 38
32 60 41 51 32 59 -14 11z"/>
<path d="M3800 2087 c0 -3 4 -17 10 -32 16 -43 80 -372 81 -417 0 -24 5 -52
10 -63 17 -37 -2 297 -20 350 -10 27 -10 25 -6 -15 4 -32 -4 -14 -28 63 -30
93 -47 136 -47 114z m87 -259 c-3 -7 -5 -2 -5 12 0 14 2 19 5 13 2 -7 2 -19 0
-25z"/>
<path d="M3340 2060 c-9 -17 -8 -19 12 -11 26 9 36 31 14 31 -8 0 -20 -9 -26
-20z"/>
<path d="M3861 1974 c0 -11 3 -14 6 -6 3 7 2 16 -1 19 -3 4 -6 -2 -5 -13z"/>
<path d="M2700 1957 c0 -8 11 -19 25 -25 14 -6 25 -8 25 -3 0 5 -11 16 -25 25
-20 13 -25 14 -25 3z"/>
<path d="M2778 1933 c7 -3 16 -2 19 1 4 3 -2 6 -13 5 -11 0 -14 -3 -6 -6z"/>
<path d="M2282 1828 c-14 -14 -16 -48 -2 -48 5 0 7 -7 4 -15 -4 -8 -1 -15 5
-15 6 0 11 5 11 11 0 5 5 7 10 4 6 -3 10 0 10 8 0 15 48 37 81 37 11 0 19 5
19 11 0 7 -14 8 -39 4 -24 -4 -42 -2 -46 4 -8 15 -38 14 -53 -1z"/>
<path d="M1898 1803 c7 -3 16 -2 19 1 4 3 -2 6 -13 5 -11 0 -14 -3 -6 -6z"/>
<path d="M1945 1760 c-3 -5 -3 -14 0 -20 3 -5 0 -8 -7 -6 -36 12 -78 14 -78 6
0 -6 8 -10 18 -11 11 0 12 -2 4 -6 -7 -3 -20 1 -28 8 -13 10 -17 10 -24 0 -4
-8 -13 -10 -19 -7 -6 4 -11 2 -11 -3 0 -6 12 -12 28 -12 15 -1 51 -3 80 -5 30
-1 52 2 52 7 0 6 8 8 19 4 10 -3 24 1 31 10 11 13 8 15 -19 15 -31 0 -42 14
-18 23 7 3 6 6 -5 6 -9 1 -20 -3 -23 -9z"/>
<path d="M2400 1611 c0 -5 5 -13 10 -16 6 -3 10 -2 10 4 0 5 -4 13 -10 16 -5
3 -10 2 -10 -4z"/>
<path d="M2570 1393 c0 -7 12 -38 27 -70 17 -39 27 -52 30 -40 3 9 -9 41 -26
70 -17 28 -31 47 -31 40z"/>
<path d="M2630 1337 c0 -11 29 -67 35 -67 2 0 2 8 -2 18 -8 22 -33 59 -33 49z"/>
<path d="M2950 1305 c14 -16 26 -32 28 -34 1 -2 4 -2 7 1 3 2 -10 18 -28 34
l-32 29 25 -30z"/>
<path d="M2481 1084 c0 -11 3 -14 6 -6 3 7 2 16 -1 19 -3 4 -6 -2 -5 -13z"/>
<path d="M3773 635 c3 -91 10 -156 20 -185 9 -25 21 -70 27 -101 14 -71 69
-155 172 -265 l80 -84 354 0 354 0 -2 217 -3 217 -95 27 c-52 16 -99 28 -105
27 -5 -1 -22 2 -37 6 -14 4 -80 11 -145 15 -65 4 -127 11 -137 16 -14 6 -17 5
-12 -3 4 -7 3 -12 -3 -12 -5 0 -12 6 -15 13 -5 9 -7 9 -12 0 -4 -10 -10 -10
-26 0 -14 8 -22 9 -25 1 -2 -7 -19 -8 -48 -4 -69 10 -61 15 21 14 41 -1 77 2
79 6 3 4 25 5 50 2 33 -3 45 -1 45 8 0 7 3 10 7 7 3 -4 13 -2 20 5 11 9 16 9
23 -1 5 -9 17 -11 33 -7 14 3 59 -1 99 -9 70 -15 109 -26 225 -62 29 -9 56
-14 59 -10 4 4 5 9 3 11 -10 9 -236 89 -256 90 -11 1 -19 4 -16 9 2 4 2 7 0 7
-3 0 -41 7 -86 15 -45 9 -87 13 -93 9 -6 -4 -8 -3 -5 3 9 14 -81 31 -205 39
-54 4 -95 10 -93 14 3 4 -17 10 -43 14 -60 8 -74 11 -92 18 -40 16 -46 14 -73
-34 -15 -26 -29 -48 -30 -48 -2 0 -1 30 1 66 3 43 0 70 -8 77 -9 9 -11 -18 -7
-128z m467 -46 c16 -5 4 -6 -35 -2 -33 3 -62 7 -64 9 -8 8 74 2 99 -7z m-68
-534 c-5 -42 -22 -47 -22 -6 0 16 -6 32 -12 34 -7 3 -2 6 12 6 24 1 26 -2 22
-34z m56 8 l10 -28 1 28 c1 30 31 39 31 10 1 -16 2 -16 15 1 18 23 21 21 30
-21 4 -21 3 -33 -4 -33 -6 0 -12 8 -12 18 -1 14 -2 14 -6 1 -5 -19 -63 -24
-76 -6 -7 9 -10 9 -14 0 -9 -25 -23 -13 -17 15 13 52 27 57 42 15z m152 16 c0
-5 -4 -8 -8 -5 -4 2 -14 1 -21 -4 -16 -9 -8 -40 10 -40 6 0 9 7 5 15 -3 9 0
15 9 15 8 0 15 7 15 15 0 18 41 20 58 3 9 -9 12 -9 12 0 0 7 10 12 23 12 18 0
19 -2 7 -11 -12 -9 -13 -12 -1 -16 11 -5 11 -7 0 -14 -12 -8 -11 -11 1 -19 12
-8 11 -10 -7 -10 -15 0 -23 6 -23 18 -1 16 -1 16 -10 0 -8 -12 -24 -17 -60
-16 -55 0 -76 18 -59 50 10 19 49 25 49 7z m150 -1 c0 -9 3 -9 12 0 21 21 25
13 14 -23 -12 -38 -26 -47 -26 -16 0 11 -4 23 -10 26 -5 3 -10 10 -10 16 0 5
5 9 10 9 6 0 10 -5 10 -12z m76 -13 c3 -14 12 -25 20 -25 8 0 14 -4 14 -10 0
-14 -37 -12 -44 3 -5 10 -7 10 -12 0 -11 -24 -24 -13 -18 15 12 50 30 58 40
17z m114 -1 c0 -13 5 -26 10 -29 6 -4 10 7 10 24 0 17 5 31 11 31 6 0 9 -14 7
-32 -4 -42 -38 -51 -56 -16 l-12 23 6 -22 c3 -13 1 -23 -5 -23 -6 0 -11 6 -12
13 0 9 -2 9 -6 0 -10 -25 -23 -12 -23 22 0 33 1 34 35 33 29 -1 35 -5 35 -24z"/>
<path d="M4410 55 c0 -17 5 -25 13 -23 6 3 12 13 12 23 0 10 -6 20 -12 23 -8
2 -13 -6 -13 -23z"/>
<path d="M1085 740 c-3 -6 1 -7 9 -4 18 7 21 14 7 14 -6 0 -13 -4 -16 -10z"/>
<path d="M1080 710 c0 -5 5 -10 10 -10 6 0 10 5 10 10 0 6 -4 10 -10 10 -5 0
-10 -4 -10 -10z"/>
<path d="M1158 683 c7 -3 16 -2 19 1 4 3 -2 6 -13 5 -11 0 -14 -3 -6 -6z"/>
<path d="M3656 593 c-6 -14 -5 -15 5 -6 7 7 10 15 7 18 -3 3 -9 -2 -12 -12z"/>
<path d="M3390 430 c-8 -5 -10 -10 -5 -10 6 0 17 5 25 10 8 5 11 10 5 10 -5 0
-17 -5 -25 -10z"/>
<path d="M3018 313 c7 -3 16 -2 19 1 4 3 -2 6 -13 5 -11 0 -14 -3 -6 -6z"/>
<path d="M2968 303 c7 -3 16 -2 19 1 4 3 -2 6 -13 5 -11 0 -14 -3 -6 -6z"/>
<path d="M2560 296 c0 -2 9 -6 20 -9 11 -3 20 -1 20 4 0 5 -9 9 -20 9 -11 0
-20 -2 -20 -4z"/>
<path d="M2668 293 c7 -3 16 -2 19 1 4 3 -2 6 -13 5 -11 0 -14 -3 -6 -6z"/>
<path d="M2898 293 c6 -2 18 -2 25 0 6 3 1 5 -13 5 -14 0 -19 -2 -12 -5z"/>
<path d="M2828 283 c6 -2 18 -2 25 0 6 3 1 5 -13 5 -14 0 -19 -2 -12 -5z"/>
<path d="M3188 183 c7 -3 16 -2 19 1 4 3 -2 6 -13 5 -11 0 -14 -3 -6 -6z"/>
<path d="M3125 170 c-13 -5 -14 -9 -5 -9 8 0 24 4 35 9 13 5 14 9 5 9 -8 0
-24 -4 -35 -9z"/>
<path d="M2640 150 c0 -5 5 -10 11 -10 5 0 7 5 4 10 -3 6 -8 10 -11 10 -2 0
-4 -4 -4 -10z"/>
<path d="M3784 122 c-6 -10 -15 -33 -18 -52 -4 -19 -10 -43 -12 -52 -5 -17 6
-18 128 -18 l133 0 -47 45 c-32 31 -52 43 -65 39 -13 -4 -15 -3 -5 4 11 7 6
14 -21 31 -42 26 -78 27 -93 3z m146 -97 c7 -9 8 -15 2 -15 -5 0 -12 7 -16 15
-7 19 -2 19 14 0z"/>
<path d="M2988 113 c7 -3 16 -2 19 1 4 3 -2 6 -13 5 -11 0 -14 -3 -6 -6z"/>
<path d="M3078 73 c7 -3 16 -2 19 1 4 3 -2 6 -13 5 -11 0 -14 -3 -6 -6z"/>
<path d="M2850 30 c8 -5 22 -9 30 -9 10 0 8 3 -5 9 -27 12 -43 12 -25 0z"/>
<path d="M2830 15 c14 -8 32 -14 40 -14 8 0 0 6 -19 14 -42 19 -54 19 -21 0z"/>
<path d="M2560 16 c0 -2 7 -7 16 -10 8 -3 12 -2 9 4 -6 10 -25 14 -25 6z"/>
<path d="M2905 10 c-8 -13 5 -13 25 0 13 8 13 10 -2 10 -9 0 -20 -4 -23 -10z"/>
</g>
</svg>
